<svg width="28" height="28" viewBox="0 0 28 28" fill="none" xmlns="http://www.w3.org/2000/svg">
<path d="M17.1729 13.9999L26.8478 4.34743C27.2715 3.92375 27.5096 3.34911 27.5096 2.74993C27.5096 2.15075 27.2715 1.57611 26.8478 1.15243C26.4242 0.728746 25.8495 0.490723 25.2504 0.490723C24.6512 0.490723 24.0765 0.728746 23.6529 1.15243L14.0004 10.8274L4.34785 1.15243C3.92417 0.728746 3.34953 0.490723 2.75035 0.490723C2.15117 0.490723 1.57653 0.728746 1.15285 1.15243C0.729168 1.57611 0.491145 2.15075 0.491145 2.74993C0.491145 3.34911 0.729168 3.92375 1.15285 4.34743L10.8279 13.9999L1.15285 23.6524C0.941962 23.8616 0.774575 24.1104 0.660346 24.3846C0.546116 24.6588 0.487305 24.9529 0.487305 25.2499C0.487305 25.547 0.546116 25.841 0.660346 26.1152C0.774575 26.3894 0.941962 26.6383 1.15285 26.8474C1.36202 27.0583 1.61087 27.2257 1.88505 27.3399C2.15924 27.4542 2.45332 27.513 2.75035 27.513C3.04738 27.513 3.34147 27.4542 3.61565 27.3399C3.88983 27.2257 4.13868 27.0583 4.34785 26.8474L14.0004 17.1724L23.6529 26.8474C23.862 27.0583 24.1109 27.2257 24.3851 27.3399C24.6592 27.4542 24.9533 27.513 25.2504 27.513C25.5474 27.513 25.8415 27.4542 26.1156 27.3399C26.3898 27.2257 26.6387 27.0583 26.8478 26.8474C27.0587 26.6383 27.2261 26.3894 27.3404 26.1152C27.4546 25.841 27.5134 25.547 27.5134 25.2499C27.5134 24.9529 27.4546 24.6588 27.3404 24.3846C27.2261 24.1104 27.0587 23.8616 26.8478 23.6524L17.1729 13.9999Z" fill="white"/>
</svg>
