<svg width="40" height="40" viewBox="0 0 40 40" fill="none" xmlns="http://www.w3.org/2000/svg">
<rect width="40" height="40" rx="20" fill="#B2A3FA"/>
<path d="M27 11H22.82C22.4 9.84 21.3 9 20 9C18.7 9 17.6 9.84 17.18 11H13C11.9 11 11 11.9 11 13V27C11 28.1 11.9 29 13 29H27C28.1 29 29 28.1 29 27V13C29 11.9 28.1 11 27 11ZM20 10.75C20.22 10.75 20.41 10.85 20.55 11C20.67 11.13 20.75 11.31 20.75 11.5C20.75 11.91 20.41 12.25 20 12.25C19.59 12.25 19.25 11.91 19.25 11.5C19.25 11.31 19.33 11.13 19.45 11C19.59 10.85 19.78 10.75 20 10.75ZM27 27H13V13H27V27ZM20 14C18.35 14 17 15.35 17 17C17 18.65 18.35 20 20 20C21.65 20 23 18.65 23 17C23 15.35 21.65 14 20 14ZM20 18C19.45 18 19 17.55 19 17C19 16.45 19.45 16 20 16C20.55 16 21 16.45 21 17C21 17.55 20.55 18 20 18ZM14 24.47V26H26V24.47C26 21.97 22.03 20.89 20 20.89C17.97 20.89 14 21.96 14 24.47ZM16.31 24C17 23.44 18.69 22.88 20 22.88C21.31 22.88 23.01 23.44 23.69 24H16.31Z" fill="#0F1319"/>
</svg>
