<svg width="40" height="40" viewBox="0 0 40 40" fill="none" xmlns="http://www.w3.org/2000/svg">
<rect width="40" height="40" rx="20" fill="#CEEA7E"/>
<path d="M20 30C14.49 30 10 25.51 10 20C10 14.49 14.49 10 20 10C25.51 10 30 14.04 30 19C30 22.31 27.31 25 24 25H22.23C21.95 25 21.73 25.22 21.73 25.5C21.73 25.62 21.78 25.73 21.86 25.83C22.27 26.3 22.5 26.89 22.5 27.5C22.5 28.88 21.38 30 20 30ZM20 12C15.59 12 12 15.59 12 20C12 24.41 15.59 28 20 28C20.28 28 20.5 27.78 20.5 27.5C20.5 27.34 20.42 27.22 20.36 27.15C19.95 26.69 19.73 26.1 19.73 25.5C19.73 24.12 20.85 23 22.23 23H24C26.21 23 28 21.21 28 19C28 15.14 24.41 12 20 12Z" fill="#0F1319"/>
<path d="M14.5 21C15.3284 21 16 20.3284 16 19.5C16 18.6716 15.3284 18 14.5 18C13.6716 18 13 18.6716 13 19.5C13 20.3284 13.6716 21 14.5 21Z" fill="#0F1319"/>
<path d="M17.5 17C18.3284 17 19 16.3284 19 15.5C19 14.6716 18.3284 14 17.5 14C16.6716 14 16 14.6716 16 15.5C16 16.3284 16.6716 17 17.5 17Z" fill="#0F1319"/>
<path d="M22.5 17C23.3284 17 24 16.3284 24 15.5C24 14.6716 23.3284 14 22.5 14C21.6716 14 21 14.6716 21 15.5C21 16.3284 21.6716 17 22.5 17Z" fill="#0F1319"/>
<path d="M25.5 21C26.3284 21 27 20.3284 27 19.5C27 18.6716 26.3284 18 25.5 18C24.6716 18 24 18.6716 24 19.5C24 20.3284 24.6716 21 25.5 21Z" fill="#0F1319"/>
</svg>
