<svg width="40" height="40" viewBox="0 0 40 40" fill="none" xmlns="http://www.w3.org/2000/svg">
<rect width="40" height="40" rx="20" fill="#FFB393"/>
<path d="M18.5 25.1502L22.48 22.8702C23.15 22.4902 23.15 21.5202 22.48 21.1302L18.5 18.8502C17.83 18.4702 17 18.9602 17 19.7202V24.2702C17 25.0402 17.83 25.5302 18.5 25.1502ZM29 14.0002H21.41L24.35 11.0602C24.55 10.8602 24.55 10.5502 24.35 10.3502C24.15 10.1502 23.84 10.1502 23.64 10.3502L20 13.9902L16.36 10.3502C16.16 10.1502 15.85 10.1502 15.65 10.3502C15.45 10.5502 15.45 10.8602 15.65 11.0602L18.59 14.0002H11C9.9 14.0002 9 14.8902 9 16.0002V28.0002C9 29.1002 9.9 30.0002 11 30.0002H29C30.1 30.0002 31 29.1002 31 28.0002V16.0002C31 14.8902 30.1 14.0002 29 14.0002ZM28 28.0002H12C11.45 28.0002 11 27.5502 11 27.0002V17.0002C11 16.4502 11.45 16.0002 12 16.0002H28C28.55 16.0002 29 16.4502 29 17.0002V27.0002C29 27.5502 28.55 28.0002 28 28.0002Z" fill="#0F1319"/>
</svg>
