<svg width="40" height="40" viewBox="0 0 40 40" fill="none" xmlns="http://www.w3.org/2000/svg">
<rect width="40" height="40" rx="20" fill="#97DAFF"/>
<path d="M12 21C13.1 21 14 20.1 14 19C14 17.9 13.1 17 12 17C10.9 17 10 17.9 10 19C10 20.1 10.9 21 12 21ZM13.13 22.1C12.76 22.04 12.39 22 12 22C11.01 22 10.07 22.21 9.22 22.58C8.48 22.9 8 23.62 8 24.43V26H12.5V24.39C12.5 23.56 12.73 22.78 13.13 22.1ZM28 21C29.1 21 30 20.1 30 19C30 17.9 29.1 17 28 17C26.9 17 26 17.9 26 19C26 20.1 26.9 21 28 21ZM32 24.43C32 23.62 31.52 22.9 30.78 22.58C29.93 22.21 28.99 22 28 22C27.61 22 27.24 22.04 26.87 22.1C27.27 22.78 27.5 23.56 27.5 24.39V26H32V24.43ZM24.24 21.65C23.07 21.13 21.63 20.75 20 20.75C18.37 20.75 16.93 21.14 15.76 21.65C14.68 22.13 14 23.21 14 24.39V26H26V24.39C26 23.21 25.32 22.13 24.24 21.65ZM16.07 24C16.16 23.77 16.2 23.61 16.98 23.31C17.95 22.93 18.97 22.75 20 22.75C21.03 22.75 22.05 22.93 23.02 23.31C23.79 23.61 23.83 23.77 23.93 24H16.07ZM20 16C20.55 16 21 16.45 21 17C21 17.55 20.55 18 20 18C19.45 18 19 17.55 19 17C19 16.45 19.45 16 20 16ZM20 14C18.34 14 17 15.34 17 17C17 18.66 18.34 20 20 20C21.66 20 23 18.66 23 17C23 15.34 21.66 14 20 14Z" fill="#0F1319"/>
</svg>
